Coordinates
version=1
nRows=12
nColumns=33
inDegrees=yes

Units are S.I. units (second, meters, Newtons, ...)
Angles are in degrees.

endheader
time	ground_thorax_rot_x	ground_thorax_rot_y	ground_thorax_rot_z	ground_thorax_tx	ground_thorax_ty	ground_thorax_tz	clav_prot_r	clav_elev_r	scapula_abduction_r	scapula_elevation_r	scapula_upward_rot_r	scapula_winging_r	shoulder_elv_r	plane_of_elev_r	axial_rot_r	elbow_flexion_r	pro_sup_r	wrist_flex_r	wrist_dev_r	clav_prot_l	clav_elev_l	scapula_abduction_l	scapula_elevation_l	scapula_upward_rot_l	scapula_winging_l	shoulder_elv_l	plane_of_elev_l	axial_rot_l	elbow_flexion_l	pro_sup_l	wrist_flex_l	wrist_dev_l
      6.77000000	     37.96642256	     11.29143234	     12.87244330	    -88.92559760	    779.26468590	     18.99510435	     11.41045778	     38.06125118	     45.00000000	     35.77340896	     -9.41414984	   1707.25536948	  -2822.32431441	     28.11445535	     61.81383950	   1808.34795818	     24.89375199	     16.58057283	     11.80831569	      5.86732516	    -45.00000000	    -43.87694007	     45.00000000	    -27.57446348	  -2433.92469033	    426.89855911	     20.49725244	    -52.04429825	    369.80287286	     30.00103068	      7.61791151	    -17.22979570
      6.78000000	     38.02319844	     11.26374025	     12.74365183	    -87.56624098	    779.17447024	     19.21321655	     11.94268157	     38.16325870	     45.00000000	     35.80986648	     -9.37119199	   1707.30797406	  -2822.47514792	     28.26558921	     61.37108577	   1808.17967972	     24.93751277	     16.51313629	     11.82748316	      5.47745220	    -45.00000000	    -43.86047734	     45.00000000	    -27.78414052	  -2434.20397949	    426.85764595	     20.66189896	    -51.71457672	    369.72341594	     30.00740399	      7.59661625	    -17.19948438
      6.79000000	     37.97732110	     11.18101143	     12.40212123	    -86.36933995	    779.10592686	     19.43026830	     11.80562693	     38.03823433	     45.00000000	     35.60313717	     -8.95161285	   1707.25294245	  -2822.49775093	     28.29205698	     61.03034108	   1808.07573973	     24.95003669	     16.45860632	     11.80666533	      5.61928972	    -45.00000000	    -44.30180385	     45.00000000	    -27.20958951	  -2434.21471231	    426.73946026	     20.73913539	    -51.24596277	    369.61516065	     29.98853536	      7.65007865	    -17.20014054
      6.80000000	     37.96094238	     11.09673747	     12.15475276	    -85.32296891	    779.05755573	     19.64210693	     11.61405606	     37.93340120	     45.00000000	     35.43099259	     -8.46832453	   1707.28756414	  -2822.40249800	     28.20851581	     60.83777342	   1808.09225654	     24.89959441	     16.43444614	     11.75211819	      5.64165153	    -45.00000000	    -44.63962068	     45.00000000	    -26.59972868	  -2434.20997818	    426.60649318	     20.69291589	    -50.89068983	    369.60167932	     29.94947798	      7.67916162	    -17.22464757
      6.81000000	     37.93064958	     11.04449609	     11.82420913	    -84.40457615	    779.02911804	     19.84577438	     11.43330383	     37.80095700	     45.00000000	     35.34576455	     -8.03333429	   1707.35620669	  -2822.37855699	     28.04466896	     60.72949134	   1808.06593112	     24.79394557	     16.42125474	     11.77358094	      5.65796715	    -45.00000000	    -45.00000000	     45.00000000	    -25.94079870	  -2434.22368622	    426.50028605	     20.69882059	    -50.55660796	    369.58918874	     29.88924628	      7.70297449	    -17.24748215
      6.82000000	     37.90363055	     10.94110668	     11.61645991	    -83.59498132	    779.02005153	     20.03503068	     11.28625108	     37.63548850	     45.00000000	     35.28487585	     -7.63721134	   1707.49397077	  -2822.48762755	     27.96457864	     60.61077527	   1807.82672662	     24.64634600	     16.34593811	     11.82252526	      5.66725216	    -45.00000000	    -45.00000000	     45.00000000	    -25.47277793	  -2434.34765895	    426.37915636	     20.69017891	    -50.28250556	    369.39468678	     29.83530179	      7.75508403	    -17.22530675
      6.83000000	     37.85164000	     10.86767200	     11.38821925	    -82.87981457	    779.03033163	     20.20727188	     11.29293323	     37.69600947	     45.00000000	     35.06090079	     -7.22806493	   1707.25534916	  -2822.50052083	     28.10605465	     60.46139444	   1807.84270283	     24.39151673	     16.31457732	     11.81395293	      5.52226325	    -45.00000000	    -45.00000000	     45.00000000	    -25.24470089	  -2434.45687176	    426.38839419	     20.79821640	    -50.04547981	    369.35723913	     29.75256276	      7.77095104	    -17.22258981
      6.84000000	     37.91111252	     10.84070042	     11.25913224	    -82.24536308	    779.05815758	     20.35880767	     11.15284751	     37.62340055	     45.00000000	     35.10001853	     -6.97294225	   1707.39707709	  -2822.49632173	     27.98937985	     60.41380505	   1807.81012864	     24.08891892	     16.29789564	     11.85841817	      5.47244505	    -45.00000000	    -45.00000000	     45.00000000	    -25.04727914	  -2434.56970160	    426.25755666	     20.78631115	    -49.75266027	    369.34551599	     29.64723971	      7.79750403	    -17.23757797
      6.85000000	     37.85298661	     10.81914061	     11.14387558	    -81.68389073	    779.10151813	     20.49059649	     11.16127674	     37.60190584	     45.00000000	     34.94972379	     -6.70732747	   1707.24775515	  -2822.59974822	     28.10879433	     60.26795962	   1807.71719880	     23.73307209	     16.23986250	     11.88762608	      5.42737366	    -45.00000000	    -45.00000000	     45.00000000	    -24.93598084	  -2434.67986519	    426.25268196	     20.85967000	    -49.53398331	    369.24925674	     29.54669581	      7.83063011	    -17.22537301
      6.86000000	     37.88046571	     10.79485785	     11.04566814	    -81.19816031	    779.15659095	     20.60173227	     11.01292083	     37.58974432	     45.00000000	     34.98374148	     -6.58625986	   1707.47973828	  -2822.54173273	     27.94727828	     60.25724212	   1807.77651099	     23.35058837	     16.25941768	     11.95234007	      5.41367143	    -45.00000000	    -45.00000000	     45.00000000	    -24.78776317	  -2434.73101052	    426.16078395	     20.84566573	    -49.29760066	    369.24523396	     29.42685724	      7.84182305	    -17.22788982
      6.87000000	     37.84485544	     10.80434321	     10.89395487	    -80.78516069	    779.21970920	     20.69516446	     11.06429978	     37.54671737	     45.00000000	     34.84601322	     -6.34236379	   1707.22191031	  -2822.71048802	     28.12301295	     60.13325531	   1807.67366394	     22.93724054	     16.18599138	     11.97046063	      5.36548755	    -45.00000000	    -45.00000000	     45.00000000	    -24.73659291	  -2434.83303076	    426.15561505	     20.92383896	    -49.17358262	    369.25411469	     29.30700818	      7.87672175	    -17.24435996
      6.88000000	     37.85379205	     10.81554892	     10.88530490	    -80.44325064	    779.28678591	     20.76988479	     10.90605836	     37.57176026	     45.00000000	     34.88415716	     -6.27497025	   1707.52549569	  -2822.55520382	     27.92031022	     60.23852641	   1807.77124216	     22.55040973	     16.23150982	     12.03088178	      5.35824860	    -45.00000000	    -45.00000000	     45.00000000	    -24.57061521	  -2434.86246839	    426.08553557	     20.90100533	    -48.98778659	    369.23353479	     29.17427261	      7.86258726	    -17.22498462
